<?xml version="1.0" standalone="no"?>
<!DOCTYPE svg PUBLIC "-//W3C//DTD SVG 20010904//EN"
 "http://www.w3.org/TR/2001/REC-SVG-20010904/DTD/svg10.dtd">
<svg version="1.0" xmlns="http://www.w3.org/2000/svg"
 width="512.000000pt" height="512.000000pt" viewBox="0 0 512.000000 512.000000"
 preserveAspectRatio="xMidYMid meet">

<g transform="translate(0.000000,512.000000) scale(0.100000,-0.100000)"
fill="#000000" stroke="none">
<path d="M3193 3771 c-33 -15 -43 -43 -43 -120 0 -74 -11 -97 -53 -106 -12 -2
-101 -6 -197 -8 -207 -4 -240 -13 -240 -72 0 -52 29 -66 158 -76 59 -4 145 -8
192 -9 121 -1 134 -9 140 -92 6 -84 20 -100 95 -106 68 -6 209 23 262 52 35
20 38 26 43 74 3 31 12 57 20 62 18 11 570 13 586 2 6 -4 13 -33 16 -65 7 -83
20 -92 121 -90 86 2 224 32 264 58 18 12 23 25 23 55 0 33 4 40 23 45 12 2
123 6 247 7 237 3 270 9 270 49 0 24 -84 116 -152 165 -69 51 -103 53 -157 12
-84 -63 -94 -68 -153 -68 -67 0 -78 12 -78 85 0 35 -6 52 -24 70 -40 40 -244
93 -309 81 -55 -10 -70 -35 -75 -126 -3 -55 -9 -84 -20 -92 -11 -10 -84 -13
-294 -13 -319 0 -308 -3 -308 86 0 40 -5 51 -29 72 -54 45 -275 91 -328 68z"/>
<path d="M1299 3756 c-44 -25 -77 -90 -135 -260 -54 -160 -57 -165 -105 -206
-32 -27 -49 -49 -49 -64 0 -23 26 -65 103 -166 60 -79 65 -99 36 -147 -38 -64
-49 -73 -91 -73 -74 0 -107 -82 -53 -135 31 -31 85 -33 275 -7 133 19 214 19
236 1 7 -6 152 -5 374 2 254 8 368 8 383 1 29 -14 107 -23 135 -15 13 3 25 16
29 31 8 32 -30 147 -69 208 -24 38 -32 44 -61 44 -46 0 -86 -32 -80 -64 5 -22
0 -25 -46 -35 -109 -23 -131 -25 -131 -8 0 8 51 82 113 163 194 256 236 328
216 380 -8 23 -56 44 -100 44 -43 0 -98 -56 -164 -165 -32 -52 -61 -95 -65
-95 -4 0 -15 9 -24 19 -22 24 -17 34 86 189 87 132 106 174 114 249 6 53 4 60
-18 81 -14 12 -49 28 -80 34 -49 10 -59 9 -89 -8 -50 -29 -92 -99 -129 -216
-60 -188 -76 -221 -125 -256 -25 -17 -45 -39 -45 -47 0 -30 28 -81 77 -140
101 -123 102 -129 34 -202 -45 -50 -50 -53 -98 -53 -58 0 -69 8 -112 78 -21
32 -42 54 -58 58 -22 6 -112 -1 -120 -10 -2 -1 4 -20 13 -41 13 -33 14 -40 1
-52 -16 -16 -167 -31 -167 -17 0 13 103 114 117 114 6 0 13 11 17 23 3 13 34
64 68 113 132 186 165 254 147 302 -11 30 -73 56 -118 48 -48 -7 -89 -51 -157
-167 -33 -54 -64 -99 -70 -99 -6 0 -19 9 -28 19 -23 25 -14 54 67 216 125 251
129 331 15 341 -26 3 -53 -1 -69 -10z"/>
<path d="M849 3723 l-42 -38 -361 -6 c-403 -6 -438 -11 -444 -62 -5 -44 21
-75 65 -79 33 -3 39 -7 44 -33 9 -40 11 -1519 3 -1579 -6 -41 -11 -49 -40 -61
-30 -13 -34 -18 -34 -53 0 -22 9 -69 20 -105 43 -139 113 -140 349 -7 168 94
191 83 191 -92 0 -197 28 -258 119 -258 60 0 130 35 154 76 45 80 47 113 47
1099 0 590 4 943 10 966 l10 36 83 6 c100 6 117 12 117 42 0 40 -178 185 -226
185 -14 0 -42 -17 -65 -37z m-262 -213 c17 -33 18 -319 1 -355 -10 -23 -16
-25 -74 -25 l-63 0 -11 38 c-17 54 -9 334 9 356 11 13 27 16 70 14 48 -3 57
-7 68 -28z m-3 -552 c13 -18 16 -53 16 -175 0 -94 -4 -162 -12 -178 -10 -23
-16 -25 -74 -25 l-63 0 -11 38 c-17 53 -9 324 9 345 9 12 29 17 67 17 43 0 56
-4 68 -22z m4 -553 c17 -38 16 -316 -2 -358 -12 -29 -21 -35 -70 -47 -44 -10
-59 -11 -69 -1 -16 16 -23 342 -7 394 l11 37 63 0 c58 0 64 -2 74 -25z"/>
<path d="M4729 3147 c-13 -13 -34 -35 -46 -50 l-23 -27 -244 0 -243 0 -104 31
c-119 36 -167 39 -205 15 -56 -37 -58 -54 -65 -506 -7 -465 -1 -421 -98 -726
-70 -222 -91 -312 -91 -389 0 -60 3 -69 29 -96 56 -56 114 -31 227 97 146 164
232 312 274 472 36 133 23 127 262 130 151 2 209 -1 228 -11 25 -12 25 -14 28
-155 2 -117 0 -148 -14 -174 -9 -18 -22 -36 -28 -40 -6 -4 -60 -8 -119 -8 -73
0 -119 -5 -144 -15 -35 -15 -36 -15 -29 -62 8 -59 21 -72 74 -77 27 -2 53 -12
70 -27 83 -72 112 -105 112 -126 0 -39 31 -46 184 -41 155 5 198 17 234 63 45
56 45 69 51 761 5 526 9 664 19 677 10 11 10 21 3 34 -25 45 -279 273 -305
273 -7 0 -24 -10 -37 -23z m-99 -262 l30 -16 0 -94 c0 -83 -2 -96 -19 -105
-12 -6 -99 -10 -214 -10 -246 0 -239 -4 -235 125 3 84 5 90 28 102 39 20 372
18 410 -2z m3 -408 c26 -17 27 -20 27 -112 0 -83 -2 -96 -19 -105 -29 -15
-390 -13 -421 3 -23 12 -25 18 -28 101 -2 56 1 93 9 102 22 26 74 33 239 31
140 -2 170 -5 193 -20z"/>
<path d="M3365 3046 c-16 -8 -45 -26 -64 -40 -45 -34 -78 -33 -246 4 -214 48
-281 39 -329 -42 -43 -73 -48 -156 -44 -684 5 -532 8 -557 69 -608 36 -31 62
-32 151 -7 99 27 118 42 118 96 0 66 15 75 120 75 114 0 138 -9 142 -52 3 -33
3 -33 61 -36 116 -6 218 45 250 126 29 71 37 192 37 528 l0 334 35 39 c19 21
35 44 35 51 0 39 -147 167 -240 209 -53 24 -56 24 -95 7z m-101 -268 c12 -17
16 -48 16 -123 0 -142 -3 -145 -129 -145 -79 0 -101 3 -112 17 -22 26 -25 217
-5 248 16 24 21 25 116 25 91 0 100 -2 114 -22z m-9 -453 c24 -23 25 -30 25
-145 0 -116 -8 -155 -34 -172 -6 -4 -50 -8 -98 -8 -125 0 -133 12 -126 205 4
136 12 145 130 145 70 0 82 -3 103 -25z"/>
<path d="M1461 2503 c-52 -27 -61 -67 -69 -288 l-7 -190 -52 -3 c-52 -3 -52
-3 -57 30 -3 18 -7 96 -9 173 -4 151 -13 185 -63 224 -14 11 -41 23 -60 27
-47 9 -78 -14 -93 -68 -18 -61 -26 -413 -12 -522 16 -135 47 -166 138 -142 78
21 91 31 95 74 3 37 4 37 50 40 38 2 47 0 50 -15 6 -28 -37 -181 -59 -211 -11
-15 -64 -51 -119 -80 -150 -80 -183 -123 -133 -173 19 -19 28 -21 81 -15 151
18 351 99 414 168 84 93 112 206 121 478 11 360 -25 478 -152 504 -19 4 -42 0
-64 -11z"/>
<path d="M1840 2492 c-53 -53 -55 -77 -55 -562 0 -486 2 -509 56 -563 27 -26
35 -29 76 -24 56 6 91 31 123 88 23 41 25 56 30 224 3 99 9 186 13 193 10 16
99 16 115 0 7 -7 12 -34 12 -60 0 -42 3 -50 26 -60 20 -9 38 -9 82 3 68 17 92
47 113 141 21 94 18 393 -4 478 -24 88 -59 123 -123 124 -39 1 -50 -3 -67 -27
-19 -25 -22 -46 -28 -210 -4 -100 -10 -190 -14 -199 -5 -14 -19 -18 -60 -18
-51 0 -53 1 -59 31 -3 17 -6 87 -6 155 0 157 -13 219 -54 260 -30 30 -87 54
-129 54 -10 0 -31 -13 -47 -28z"/>
</g>
</svg>
